<?xml version="1.0" standalone="no"?>
<!DOCTYPE svg PUBLIC "-//W3C//DTD SVG 20010904//EN"
 "http://www.w3.org/TR/2001/REC-SVG-20010904/DTD/svg10.dtd">
<svg version="1.0" xmlns="http://www.w3.org/2000/svg"
 width="700.000000pt" height="700.000000pt" viewBox="0 0 700.000000 700.000000"
 preserveAspectRatio="xMidYMid meet">
<metadata>
Created by potrace 1.14, written by Peter Selinger 2001-2017
</metadata>
<g transform="translate(0.000000,700.000000) scale(0.100000,-0.100000)"
fill="#000000" stroke="none">
<path d="M3280 6994 c-19 -2 -84 -9 -145 -14 -578 -56 -1180 -283 -1660 -625
-237 -169 -531 -446 -709 -670 -416 -521 -673 -1147 -748 -1820 -17 -154 -17
-585 0 -730 69 -588 254 -1099 567 -1570 126 -189 242 -332 410 -504 580 -595
1295 -943 2140 -1043 145 -17 576 -17 730 0 822 91 1556 447 2131 1034 203
206 348 390 487 618 274 449 432 915 499 1465 16 135 16 591 0 730 -100 846
-447 1557 -1043 2141 -555 542 -1249 874 -2029 970 -117 15 -553 27 -630 18z
m310 -1994 c301 -27 548 -104 752 -235 160 -103 331 -311 413 -502 121 -281
162 -683 109 -1063 -49 -342 -175 -604 -390 -811 -132 -127 -278 -212 -473
-276 -220 -72 -260 -75 -888 -80 l-563 -5 0 1491 0 1491 463 0 c254 0 514 -5
577 -10z"/>
<path d="M3227 4463 c-4 -3 -7 -431 -7 -950 l0 -943 93 0 c471 1 745 186 841
571 68 267 55 653 -28 873 -102 270 -318 416 -660 446 -129 11 -230 13 -239 3z"/>
</g>
</svg>
